<?xml version="1.0" encoding="us-ascii" standalone="no"?><svg xmlns="http://www.w3.org/2000/svg" xmlns:xlink="http://www.w3.org/1999/xlink" contentStyleType="text/css" height="179px" preserveAspectRatio="none" style="width:374px;height:179px;" version="1.1" viewBox="0 0 374 179" width="374px" zoomAndPan="magnify"><defs/><g><rect fill="#E0E0E0" height="14" style="stroke:#FF8800;stroke-width:1.0;" width="10" x="207.5" y="61.6094"/><rect fill="#E0E0E0" height="26.8047" style="stroke:#FF8800;stroke-width:1.0;" width="10" x="207.5" y="102.4141"/><line style="stroke:#FF8800;stroke-width:0.5;stroke-dasharray:5.0,5.0;" x1="66" x2="66" y1="32.8047" y2="147.2188"/><line style="stroke:#FF8800;stroke-width:0.5;stroke-dasharray:5.0,5.0;" x1="212" x2="212" y1="32.8047" y2="147.2188"/><line style="stroke:#FF8800;stroke-width:0.5;stroke-dasharray:5.0,5.0;" x1="333" x2="333" y1="32.8047" y2="147.2188"/><rect fill="#CCCCCC" height="26.8047" rx="2.5" ry="2.5" style="stroke:#AAAAAA;stroke-width:0.5;" width="123" x="5" y="5"/><text fill="#000000" font-family="Verdana" font-size="11" lengthAdjust="spacing" textLength="109" x="12" y="22.2104">Custom Application</text><rect fill="#CCCCCC" height="26.8047" rx="2.5" ry="2.5" style="stroke:#AAAAAA;stroke-width:0.5;" width="123" x="5" y="146.2188"/><text fill="#000000" font-family="Verdana" font-size="11" lengthAdjust="spacing" textLength="109" x="12" y="163.4292">Custom Application</text><rect fill="#CCCCCC" height="26.8047" rx="2.5" ry="2.5" style="stroke:#AAAAAA;stroke-width:0.5;" width="75" x="175" y="5"/><text fill="#000000" font-family="Verdana" font-size="11" lengthAdjust="spacing" textLength="61" x="182" y="22.2104">File Server</text><rect fill="#CCCCCC" height="26.8047" rx="2.5" ry="2.5" style="stroke:#AAAAAA;stroke-width:0.5;" width="75" x="175" y="146.2188"/><text fill="#000000" font-family="Verdana" font-size="11" lengthAdjust="spacing" textLength="61" x="182" y="163.4292">File Server</text><rect fill="#CCCCCC" height="26.8047" rx="2.5" ry="2.5" style="stroke:#AAAAAA;stroke-width:0.5;" width="69" x="299" y="5"/><text fill="#000000" font-family="Verdana" font-size="11" lengthAdjust="spacing" textLength="55" x="306" y="22.2104">File Client</text><rect fill="#CCCCCC" height="26.8047" rx="2.5" ry="2.5" style="stroke:#AAAAAA;stroke-width:0.5;" width="69" x="299" y="146.2188"/><text fill="#000000" font-family="Verdana" font-size="11" lengthAdjust="spacing" textLength="55" x="306" y="163.4292">File Client</text><rect fill="#E0E0E0" height="14" style="stroke:#FF8800;stroke-width:1.0;" width="10" x="207.5" y="61.6094"/><rect fill="#E0E0E0" height="26.8047" style="stroke:#FF8800;stroke-width:1.0;" width="10" x="207.5" y="102.4141"/><polygon fill="#000000" points="228.5,57.6094,218.5,61.6094,228.5,65.6094,224.5,61.6094" style="stroke:#000000;stroke-width:1.0;"/><line style="stroke:#000000;stroke-width:1.0;" x1="222.5" x2="332.5" y1="61.6094" y2="61.6094"/><text fill="#333333" font-family="Verdana" font-size="11" font-weight="bold" lengthAdjust="spacing" textLength="12" x="234.5" y="57.0151">1.</text><text fill="#333333" font-family="Verdana" font-size="11" lengthAdjust="spacing" textLength="81" x="250.5" y="57.0151">tus upload file</text><polygon fill="#000000" points="321.5,71.6094,331.5,75.6094,321.5,79.6094,325.5,75.6094" style="stroke:#000000;stroke-width:1.0;"/><line style="stroke:#000000;stroke-width:1.0;stroke-dasharray:2.0,2.0;" x1="212.5" x2="327.5" y1="75.6094" y2="75.6094"/><polygon fill="#000000" points="195.5,98.4141,205.5,102.4141,195.5,106.4141,199.5,102.4141" style="stroke:#000000;stroke-width:1.0;"/><line style="stroke:#000000;stroke-width:1.0;" x1="66.5" x2="201.5" y1="102.4141" y2="102.4141"/><text fill="#333333" font-family="Verdana" font-size="11" font-weight="bold" lengthAdjust="spacing" textLength="12" x="73.5" y="97.8198">2.</text><text fill="#333333" font-family="Verdana" font-size="11" lengthAdjust="spacing" textLength="106" x="89.5" y="97.8198">downloadFile(path)</text><polygon fill="#000000" points="77.5,125.2188,67.5,129.2188,77.5,133.2188,73.5,129.2188" style="stroke:#000000;stroke-width:1.0;"/><line style="stroke:#000000;stroke-width:1.0;stroke-dasharray:2.0,2.0;" x1="71.5" x2="211.5" y1="129.2188" y2="129.2188"/><text fill="#333333" font-family="Verdana" font-size="11" lengthAdjust="spacing" textLength="35" x="83.5" y="124.6245">&lt;file&gt;</text><!--SRC=[ROz1JiCm44NtFiNGJI5Ia61PeKfj43jMd62m9ubLnsFPu-RwZ0jILTIDD__zDzyFCjD2aCcvJANqmK-pSCOuaJ7bv6F2Z0jyeprDcMjq0mVE84eKZIYAsSALKqVYMEXJNJZHaGAlXvnvrKPLunR4Io3uyFgyyne3epD6o-AjJnW5DaCjmWiSKWhUedYE6y02cD8jTt5yKJvJlW1ZkPCFmUl6tzmQCrhezqhkeEjUdhiEf1QegQs0KNc3LlmPXPhDZ0NwXblZw2RGBLVFQ_Eulx-qeuy9PNwwgzBY3jxQfVq_vmy0]--></g></svg>