<?xml version="1.0" encoding="us-ascii" standalone="no"?><svg xmlns="http://www.w3.org/2000/svg" xmlns:xlink="http://www.w3.org/1999/xlink" contentStyleType="text/css" height="191px" preserveAspectRatio="none" style="width:327px;height:191px;" version="1.1" viewBox="0 0 327 191" width="327px" zoomAndPan="magnify"><defs/><g><rect fill="#E0E0E0" height="26.8047" style="stroke:#FF8800;stroke-width:1.0;" width="10" x="170.5" y="61.6094"/><rect fill="#E0E0E0" height="26.8047" style="stroke:#FF8800;stroke-width:1.0;" width="10" x="170.5" y="115.2188"/><line style="stroke:#FF8800;stroke-width:0.5;stroke-dasharray:5.0,5.0;" x1="66" x2="66" y1="32.8047" y2="160.0234"/><line style="stroke:#FF8800;stroke-width:0.5;stroke-dasharray:5.0,5.0;" x1="175" x2="175" y1="32.8047" y2="160.0234"/><line style="stroke:#FF8800;stroke-width:0.5;stroke-dasharray:5.0,5.0;" x1="286" x2="286" y1="32.8047" y2="160.0234"/><rect fill="#CCCCCC" height="26.8047" rx="2.5" ry="2.5" style="stroke:#AAAAAA;stroke-width:0.5;" width="123" x="5" y="5"/><text fill="#000000" font-family="Verdana" font-size="11" lengthAdjust="spacing" textLength="109" x="12" y="22.2104">Custom Application</text><rect fill="#CCCCCC" height="26.8047" rx="2.5" ry="2.5" style="stroke:#AAAAAA;stroke-width:0.5;" width="123" x="5" y="159.0234"/><text fill="#000000" font-family="Verdana" font-size="11" lengthAdjust="spacing" textLength="109" x="12" y="176.2339">Custom Application</text><rect fill="#CCCCCC" height="26.8047" rx="2.5" ry="2.5" style="stroke:#AAAAAA;stroke-width:0.5;" width="75" x="138" y="5"/><text fill="#000000" font-family="Verdana" font-size="11" lengthAdjust="spacing" textLength="61" x="145" y="22.2104">File Server</text><rect fill="#CCCCCC" height="26.8047" rx="2.5" ry="2.5" style="stroke:#AAAAAA;stroke-width:0.5;" width="75" x="138" y="159.0234"/><text fill="#000000" font-family="Verdana" font-size="11" lengthAdjust="spacing" textLength="61" x="145" y="176.2339">File Server</text><rect fill="#CCCCCC" height="26.8047" rx="2.5" ry="2.5" style="stroke:#AAAAAA;stroke-width:0.5;" width="69" x="252" y="5"/><text fill="#000000" font-family="Verdana" font-size="11" lengthAdjust="spacing" textLength="55" x="259" y="22.2104">File Client</text><rect fill="#CCCCCC" height="26.8047" rx="2.5" ry="2.5" style="stroke:#AAAAAA;stroke-width:0.5;" width="69" x="252" y="159.0234"/><text fill="#000000" font-family="Verdana" font-size="11" lengthAdjust="spacing" textLength="55" x="259" y="176.2339">File Client</text><rect fill="#E0E0E0" height="26.8047" style="stroke:#FF8800;stroke-width:1.0;" width="10" x="170.5" y="61.6094"/><rect fill="#E0E0E0" height="26.8047" style="stroke:#FF8800;stroke-width:1.0;" width="10" x="170.5" y="115.2188"/><polygon fill="#000000" points="158.5,57.6094,168.5,61.6094,158.5,65.6094,162.5,61.6094" style="stroke:#000000;stroke-width:1.0;"/><line style="stroke:#000000;stroke-width:1.0;" x1="66.5" x2="164.5" y1="61.6094" y2="61.6094"/><text fill="#333333" font-family="Verdana" font-size="11" font-weight="bold" lengthAdjust="spacing" textLength="8" x="73.5" y="57.0151">1</text><text fill="#333333" font-family="Verdana" font-size="11" lengthAdjust="spacing" textLength="59" x="85.5" y="57.0151">upload file</text><polygon fill="#000000" points="77.5,84.4141,67.5,88.4141,77.5,92.4141,73.5,88.4141" style="stroke:#000000;stroke-width:1.0;"/><line style="stroke:#000000;stroke-width:1.0;stroke-dasharray:2.0,2.0;" x1="71.5" x2="174.5" y1="88.4141" y2="88.4141"/><text fill="#333333" font-family="Verdana" font-size="11" font-weight="bold" lengthAdjust="spacing" textLength="8" x="83.5" y="83.8198">2</text><text fill="#333333" font-family="Verdana" font-size="11" lengthAdjust="spacing" textLength="4" x="95.5" y="83.8198">&#160;</text><polygon fill="#000000" points="191.5,111.2188,181.5,115.2188,191.5,119.2188,187.5,115.2188" style="stroke:#000000;stroke-width:1.0;"/><line style="stroke:#000000;stroke-width:1.0;" x1="185.5" x2="285.5" y1="115.2188" y2="115.2188"/><text fill="#333333" font-family="Verdana" font-size="11" font-weight="bold" lengthAdjust="spacing" textLength="8" x="197.5" y="110.6245">3</text><text fill="#333333" font-family="Verdana" font-size="11" lengthAdjust="spacing" textLength="75" x="209.5" y="110.6245">download file</text><polygon fill="#000000" points="274.5,138.0234,284.5,142.0234,274.5,146.0234,278.5,142.0234" style="stroke:#000000;stroke-width:1.0;"/><line style="stroke:#000000;stroke-width:1.0;stroke-dasharray:2.0,2.0;" x1="175.5" x2="280.5" y1="142.0234" y2="142.0234"/><text fill="#333333" font-family="Verdana" font-size="11" font-weight="bold" lengthAdjust="spacing" textLength="8" x="182.5" y="137.4292">4</text><text fill="#333333" font-family="Verdana" font-size="11" lengthAdjust="spacing" textLength="4" x="194.5" y="137.4292">&#160;</text><!--SRC=[VOwnQWCn38PtFuMQ9TCDNJiKqeDkdKeUGB5r5nEV9MGvz_fLhfHoKBe8nFzzl_HaLre8b59IQcqeURuQAzQPGcYtN0KL5xXWlCtAlQQH2okO4yqZgXQEyCjvXt1jzE5TEDCR5LvFghowqRtn29Qj4Bnd7sSfZ2a4Lot7B5WD3cDlnWkSH4gEQ9dh0R01YkovhU6Jz4ww0LFx8nzBzW-_ynW2TkFQbmifFFic0iEhYo_GjqzWSYTWj7n7eqTZc1eCpZok9zedyKTElDR_TR-zjxy0]--></g></svg>